HIERARCHY
ROOT mixamorig:Hips
{
	OFFSET -0.000008 104.274872 1.554316
	CHANNELS 6 Xposition Yposition Zposition Xrotation Yrotation Zrotation
	JOINT mixamorig:Spine
	{
		OFFSET -0.000005 10.181595 0.131519
		CHANNELS 6 Xposition Yposition Zposition Xrotation Yrotation Zrotation
		JOINT mixamorig:Spine1
		{
			OFFSET -0.000000 9.893959 -1.470707
			CHANNELS 6 Xposition Yposition Zposition Xrotation Yrotation Zrotation
			JOINT mixamorig:Spine2
			{
				OFFSET -0.000000 9.220757 -1.370641
				CHANNELS 6 Xposition Yposition Zposition Xrotation Yrotation Zrotation
				JOINT mixamorig:Neck
				{
					OFFSET 0.000001 16.740417 -2.049036
					CHANNELS 6 Xposition Yposition Zposition Xrotation Yrotation Zrotation
					JOINT mixamorig:Head
					{
						OFFSET 0.000000 9.617874 1.685006
						CHANNELS 6 Xposition Yposition Zposition Xrotation Yrotation Zrotation
						JOINT mixamorig:HeadTop_End
						{
							OFFSET 0.000002 22.037354 7.501101
							CHANNELS 6 Xposition Yposition Zposition Xrotation Yrotation Zrotation
							End Site
							{
								OFFSET 0.000168 2310.654297 -282.823242
							}
						}
					}
				}
				JOINT mixamorig:RightShoulder
				{
					OFFSET -4.569970 11.014908 -2.160885
					CHANNELS 6 Xposition Yposition Zposition Xrotation Yrotation Zrotation
					JOINT mixamorig:RightArm
					{
						OFFSET -10.592851 -0.524811 -2.232101
						CHANNELS 6 Xposition Yposition Zposition Xrotation Yrotation Zrotation
						JOINT mixamorig:RightForeArm
						{
							OFFSET -27.841511 0.000031 -0.000004
							CHANNELS 6 Xposition Yposition Zposition Xrotation Yrotation Zrotation
							JOINT mixamorig:RightHand
							{
								OFFSET -28.328831 -0.000015 0.000015
								CHANNELS 6 Xposition Yposition Zposition Xrotation Yrotation Zrotation
								JOINT mixamorig:RightHandThumb1
								{
									OFFSET -2.464806 -1.573990 2.681852
									CHANNELS 6 Xposition Yposition Zposition Xrotation Yrotation Zrotation
									JOINT mixamorig:RightHandThumb2
									{
										OFFSET -3.215179 -1.872803 1.924282
										CHANNELS 6 Xposition Yposition Zposition Xrotation Yrotation Zrotation
										JOINT mixamorig:RightHandThumb3
										{
											OFFSET -2.654831 -1.527969 1.512609
											CHANNELS 6 Xposition Yposition Zposition Xrotation Yrotation Zrotation
											JOINT mixamorig:RightHandThumb4
											{
												OFFSET -2.018814 -1.152008 1.108052
												CHANNELS 6 Xposition Yposition Zposition Xrotation Yrotation Zrotation
												End Site
												{
													OFFSET -188.809540 -114.533607 132.431396
												}
											}
										}
									}
								}
								JOINT mixamorig:RightHandIndex1
								{
									OFFSET -9.108284 -0.517868 2.259835
									CHANNELS 6 Xposition Yposition Zposition Xrotation Yrotation Zrotation
									JOINT mixamorig:RightHandIndex2
									{
										OFFSET -3.699989 0.000000 0.001215
										CHANNELS 6 Xposition Yposition Zposition Xrotation Yrotation Zrotation
										JOINT mixamorig:RightHandIndex3
										{
											OFFSET -2.850006 0.000031 -0.000522
											CHANNELS 6 Xposition Yposition Zposition Xrotation Yrotation Zrotation
											JOINT mixamorig:RightHandIndex4
											{
												OFFSET -2.772186 -0.000015 -0.000020
												CHANNELS 6 Xposition Yposition Zposition Xrotation Yrotation Zrotation
												End Site
												{
													OFFSET -277.218445 0.000000 -0.050231
												}
											}
										}
									}
								}
								JOINT mixamorig:RightHandMiddle1
								{
									OFFSET -9.532516 -0.000031 -0.000023
									CHANNELS 6 Xposition Yposition Zposition Xrotation Yrotation Zrotation
									JOINT mixamorig:RightHandMiddle2
									{
										OFFSET -3.700005 -0.000015 0.003713
										CHANNELS 6 Xposition Yposition Zposition Xrotation Yrotation Zrotation
										JOINT mixamorig:RightHandMiddle3
										{
											OFFSET -2.949974 0.000015 -0.002054
											CHANNELS 6 Xposition Yposition Zposition Xrotation Yrotation Zrotation
											JOINT mixamorig:RightHandMiddle4
											{
												OFFSET -2.946640 0.000000 -0.000156
												CHANNELS 6 Xposition Yposition Zposition Xrotation Yrotation Zrotation
												End Site
												{
													OFFSET -294.664337 0.000000 -0.113670
												}
											}
										}
									}
								}
								JOINT mixamorig:RightHandRing1
								{
									OFFSET -9.103600 -0.043076 -1.865134
									CHANNELS 6 Xposition Yposition Zposition Xrotation Yrotation Zrotation
									JOINT mixamorig:RightHandRing2
									{
										OFFSET -3.379288 0.000000 -0.001055
										CHANNELS 6 Xposition Yposition Zposition Xrotation Yrotation Zrotation
										JOINT mixamorig:RightHandRing3
										{
											OFFSET -2.889687 -0.000015 0.000379
											CHANNELS 6 Xposition Yposition Zposition Xrotation Yrotation Zrotation
											JOINT mixamorig:RightHandRing4
											{
												OFFSET -2.638809 -0.000015 0.000941
												CHANNELS 6 Xposition Yposition Zposition Xrotation Yrotation Zrotation
												End Site
												{
													OFFSET -263.880371 0.000000 0.516020
												}
											}
										}
									}
								}
								JOINT mixamorig:RightHandPinky1
								{
									OFFSET -8.076683 -0.486710 -3.806280
									CHANNELS 6 Xposition Yposition Zposition Xrotation Yrotation Zrotation
									JOINT mixamorig:RightHandPinky2
									{
										OFFSET -3.600014 -0.000015 -0.003747
										CHANNELS 6 Xposition Yposition Zposition Xrotation Yrotation Zrotation
										JOINT mixamorig:RightHandPinky3
										{
											OFFSET -2.099983 0.000000 -0.005739
											CHANNELS 6 Xposition Yposition Zposition Xrotation Yrotation Zrotation
											JOINT mixamorig:RightHandPinky4
											{
												OFFSET -2.115768 -0.000031 -0.003680
												CHANNELS 6 Xposition Yposition Zposition Xrotation Yrotation Zrotation
												End Site
												{
													OFFSET -211.577087 0.000000 -0.350686
												}
											}
										}
									}
								}
							}
						}
					}
				}
				JOINT mixamorig:LeftShoulder
				{
					OFFSET 4.570447 11.014725 -2.160855
					CHANNELS 6 Xposition Yposition Zposition Xrotation Yrotation Zrotation
					JOINT mixamorig:LeftArm
					{
						OFFSET 10.592371 -0.524597 -2.232119
						CHANNELS 6 Xposition Yposition Zposition Xrotation Yrotation Zrotation
						JOINT mixamorig:LeftForeArm
						{
							OFFSET 27.841532 -0.000031 0.000026
							CHANNELS 6 Xposition Yposition Zposition Xrotation Yrotation Zrotation
							JOINT mixamorig:LeftHand
							{
								OFFSET 28.328846 -0.000061 0.000022
								CHANNELS 6 Xposition Yposition Zposition Xrotation Yrotation Zrotation
								JOINT mixamorig:LeftHandThumb1
								{
									OFFSET 2.466141 -1.576172 2.681732
									CHANNELS 6 Xposition Yposition Zposition Xrotation Yrotation Zrotation
									JOINT mixamorig:LeftHandThumb2
									{
										OFFSET 3.217812 -1.872070 1.916482
										CHANNELS 6 Xposition Yposition Zposition Xrotation Yrotation Zrotation
										JOINT mixamorig:LeftHandThumb3
										{
											OFFSET 2.656029 -1.528778 1.514513
											CHANNELS 6 Xposition Yposition Zposition Xrotation Yrotation Zrotation
											JOINT mixamorig:LeftHandThumb4
											{
												OFFSET 2.020889 -1.154053 1.115139
												CHANNELS 6 Xposition Yposition Zposition Xrotation Yrotation Zrotation
												End Site
												{
													OFFSET 190.885437 -115.081749 130.048782
												}
											}
										}
									}
								}
								JOINT mixamorig:LeftHandIndex1
								{
									OFFSET 9.109314 -0.518021 2.259871
									CHANNELS 6 Xposition Yposition Zposition Xrotation Yrotation Zrotation
									JOINT mixamorig:LeftHandIndex2
									{
										OFFSET 3.699989 0.000000 -0.000322
										CHANNELS 6 Xposition Yposition Zposition Xrotation Yrotation Zrotation
										JOINT mixamorig:LeftHandIndex3
										{
											OFFSET 2.850006 0.000000 0.000352
											CHANNELS 6 Xposition Yposition Zposition Xrotation Yrotation Zrotation
											JOINT mixamorig:LeftHandIndex4
											{
												OFFSET 2.774864 -0.000031 -0.000027
												CHANNELS 6 Xposition Yposition Zposition Xrotation Yrotation Zrotation
												End Site
												{
													OFFSET 277.486267 0.000000 -0.009857
												}
											}
										}
									}
								}
								JOINT mixamorig:LeftHandMiddle1
								{
									OFFSET 9.533394 0.000061 0.000044
									CHANNELS 6 Xposition Yposition Zposition Xrotation Yrotation Zrotation
									JOINT mixamorig:LeftHandMiddle2
									{
										OFFSET 3.699989 -0.000015 -0.000231
										CHANNELS 6 Xposition Yposition Zposition Xrotation Yrotation Zrotation
										JOINT mixamorig:LeftHandMiddle3
										{
											OFFSET 2.949997 -0.000015 -0.000059
											CHANNELS 6 Xposition Yposition Zposition Xrotation Yrotation Zrotation
											JOINT mixamorig:LeftHandMiddle4
											{
												OFFSET 2.952896 0.000031 0.000063
												CHANNELS 6 Xposition Yposition Zposition Xrotation Yrotation Zrotation
												End Site
												{
													OFFSET 295.289337 0.000000 0.022810
												}
											}
										}
									}
								}
								JOINT mixamorig:LeftHandRing1
								{
									OFFSET 9.104523 -0.042999 -1.865074
									CHANNELS 6 Xposition Yposition Zposition Xrotation Yrotation Zrotation
									JOINT mixamorig:LeftHandRing2
									{
										OFFSET 3.150009 -0.000031 0.000043
										CHANNELS 6 Xposition Yposition Zposition Xrotation Yrotation Zrotation
										JOINT mixamorig:LeftHandRing3
										{
											OFFSET 2.949982 -0.000015 0.000040
											CHANNELS 6 Xposition Yposition Zposition Xrotation Yrotation Zrotation
											JOINT mixamorig:LeftHandRing4
											{
												OFFSET 2.644348 0.000000 0.000057
												CHANNELS 6 Xposition Yposition Zposition Xrotation Yrotation Zrotation
												End Site
												{
													OFFSET 264.434631 0.000000 0.012105
												}
											}
										}
									}
								}
								JOINT mixamorig:LeftHandPinky1
								{
									OFFSET 8.077789 -0.486847 -3.806259
									CHANNELS 6 Xposition Yposition Zposition Xrotation Yrotation Zrotation
									JOINT mixamorig:LeftHandPinky2
									{
										OFFSET 3.599953 0.000031 0.014727
										CHANNELS 6 Xposition Yposition Zposition Xrotation Yrotation Zrotation
										JOINT mixamorig:LeftHandPinky3
										{
											OFFSET 2.100021 0.000015 0.007705
											CHANNELS 6 Xposition Yposition Zposition Xrotation Yrotation Zrotation
											JOINT mixamorig:LeftHandPinky4
											{
												OFFSET 2.125504 0.000031 0.007517
												CHANNELS 6 Xposition Yposition Zposition Xrotation Yrotation Zrotation
												End Site
												{
													OFFSET 212.550781 0.000000 0.625752
												}
											}
										}
									}
								}
							}
						}
					}
				}
			}
		}
	}
	JOINT mixamorig:RightUpLeg
	{
		OFFSET -8.207787 -6.751648 -1.599560
		CHANNELS 6 Xposition Yposition Zposition Xrotation Yrotation Zrotation
		JOINT mixamorig:RightLeg
		{
			OFFSET -0.000002 -44.370117 0.345942
			CHANNELS 6 Xposition Yposition Zposition Xrotation Yrotation Zrotation
			JOINT mixamorig:RightFoot
			{
				OFFSET 0.000003 -44.423679 -3.043532
				CHANNELS 6 Xposition Yposition Zposition Xrotation Yrotation Zrotation
				JOINT mixamorig:RightToeBase
				{
					OFFSET -0.000002 -8.728671 10.710558
					CHANNELS 6 Xposition Yposition Zposition Xrotation Yrotation Zrotation
					JOINT mixamorig:RightToe_End
					{
						OFFSET -0.000001 -0.000679 9.278119
						CHANNELS 6 Xposition Yposition Zposition Xrotation Yrotation Zrotation
						End Site
						{
							OFFSET 0.000000 -0.067690 927.812134
						}
					}
				}
			}
		}
	}
	JOINT mixamorig:LeftUpLeg
	{
		OFFSET 8.207793 -6.751686 -1.599556
		CHANNELS 6 Xposition Yposition Zposition Xrotation Yrotation Zrotation
		JOINT mixamorig:LeftLeg
		{
			OFFSET -0.000004 -44.370014 0.346954
			CHANNELS 6 Xposition Yposition Zposition Xrotation Yrotation Zrotation
			JOINT mixamorig:LeftFoot
			{
				OFFSET -0.000001 -44.423672 -3.044401
				CHANNELS 6 Xposition Yposition Zposition Xrotation Yrotation Zrotation
				JOINT mixamorig:LeftToeBase
				{
					OFFSET -0.000002 -8.728669 10.710558
					CHANNELS 6 Xposition Yposition Zposition Xrotation Yrotation Zrotation
					JOINT mixamorig:LeftToe_End
					{
						OFFSET -0.000003 -0.000679 9.278133
						CHANNELS 6 Xposition Yposition Zposition Xrotation Yrotation Zrotation
						End Site
						{
							OFFSET 0.000000 -0.068021 927.813477
						}
					}
				}
			}
		}
	}
}
MOTION
Frames: 3
Frame Time: 0.033333
0.000006 104.270477 1.554256 0.000010 0.000003 -0.000113 -0.000005 10.181587 0.131522 0.000001 -0.000003 0.000084 -0.000000 9.893967 -1.470711 0.000001 0.000000 -0.000000 -0.000000 9.220802 -1.370642 0.000000 -0.000000 -0.000000 0.000001 16.740433 -2.049030 0.000000 -0.000000 -0.000000 0.000000 9.617859 1.685014 0.000000 0.000000 0.000000 0.000002 22.037384 7.501101 0.000000 -0.000000 0.000000 -4.569968 11.014880 -2.160881 0.000008 0.000001 -0.000038 -10.592872 -0.524775 -2.231883 69.200786 34.839135 -24.426433 -27.841537 0.000007 0.000532 -55.720472 117.082461 81.651770 -28.328838 -0.000007 0.000019 -0.000320 -0.000047 0.000008 -2.464446 -1.573737 2.682297 -51.582692 -168.846511 -20.279458 -3.215250 -1.872516 1.924630 148.124222 33.127056 24.002055 -2.654966 -1.527850 1.513060 147.717512 27.891054 -25.943364 -2.018815 -1.151999 1.108069 -0.000000 -0.000003 0.000000 -9.108380 -0.517552 2.260133 104.191189 14.694112 -18.864661 -3.700085 0.000319 0.001529 101.012576 12.659070 -15.302504 -2.850074 0.000376 -0.000227 99.997910 10.478542 -12.471717 -2.772179 -0.000000 -0.000021 0.000002 0.000001 0.000000 -9.532584 0.000265 0.000248 94.784611 15.183019 -16.642594 -3.700078 0.000320 0.003976 94.035504 12.737938 -13.557599 -2.950070 0.000333 -0.001788 97.460727 11.546582 -13.135940 -2.946623 0.000000 -0.000152 -0.000000 -0.000000 -0.000001 -9.103702 -0.042764 -1.864872 91.859501 17.156762 -17.667903 -3.379330 0.000327 -0.000801 92.872275 10.303063 -10.848263 -2.889756 0.000352 0.000646 100.713448 6.953865 -8.443151 -2.638790 -0.000013 0.000939 0.000002 -0.000000 -0.000001 -8.076759 -0.486399 -3.806038 83.444100 17.520509 -15.511568 -3.600044 0.000300 -0.003534 85.096289 7.947304 -6.972340 -2.100020 0.000322 -0.005506 89.485409 4.053446 -3.804828 -2.115753 -0.000053 -0.003683 0.000003 -0.000002 0.000000 4.570446 11.014691 -2.160851 -0.000018 0.000010 -0.000021 10.592478 -0.524580 -2.232351 33.678713 -64.219952 21.508993 27.841721 -0.000086 -0.000070 236.270723 -67.495103 257.345846 28.328842 -0.000025 0.000029 0.000023 -0.000089 -0.000001 2.466158 -1.576148 2.681868 107.675692 143.026497 -153.927247 3.217771 -1.872035 1.916538 -125.291064 52.627000 70.005730 2.655895 -1.528830 1.514626 -190.436275 42.622836 136.747436 2.020898 -1.154073 1.115156 0.000003 0.000002 0.000003 9.109181 -0.517703 2.260035 -149.287431 -12.357436 -43.011559 3.699887 0.000332 -0.000144 216.402222 -8.816501 333.579991 2.849968 0.000344 0.000540 -145.049640 -2.497209 -7.917550 2.774897 -0.000022 -0.000040 -0.000001 -0.000002 -0.000001 9.533288 0.000387 0.000225 215.498670 -11.889723 -36.028667 3.699947 0.000325 -0.000031 40.331249 -173.835090 -196.679231 2.950010 0.000305 0.000131 -139.144955 1.240897 3.324146 2.952875 -0.000015 0.000082 0.000001 0.000003 -0.000001 9.104626 -0.042966 -1.865031 168.816499 -18.195185 -242.872730 3.150027 0.000160 -0.000137 67.692974 -0.716174 0.481323 2.949961 0.000070 -0.000134 35.768751 17.593927 -5.717471 2.644326 0.000031 0.000064 -0.000003 -0.000000 0.000003 8.077946 -0.486649 -3.806266 154.616782 -13.193618 56.898150 3.599921 0.000146 0.014535 240.820121 166.547865 -187.742038 2.099967 0.000062 0.007552 33.588422 23.524807 -7.167058 2.125517 0.000014 0.007514 0.000000 -0.000003 0.000001 -8.207786 -6.751667 -1.599560 -0.077001 -0.000003 0.000080 -0.000002 -44.370110 0.345938 0.153719 -0.000000 -0.000000 0.000000 -44.423679 -3.043532 -0.076700 0.000000 -0.000002 -0.000006 -8.728667 10.710559 -0.000009 -0.000000 -0.000000 -0.000001 -0.000679 9.278123 0.000000 -0.000000 -0.000000 8.207792 -6.751710 -1.599556 -0.074518 -0.000003 0.000081 -0.000002 -44.370014 0.346960 0.148822 0.000002 0.000000 -0.000001 -44.423664 -3.044403 -0.074314 0.000000 -0.000002 -0.000004 -8.728671 10.710558 0.000007 -0.000000 -0.000000 0.000000 -0.000680 9.278137 -0.000000 0.000000 -0.000001 
0.000006 104.270477 1.554256 0.000010 0.000003 -0.000113 -0.000005 10.181587 0.131522 0.000001 -0.000003 0.000084 -0.000000 9.893967 -1.470711 0.000001 0.000000 -0.000000 -0.000000 9.220802 -1.370642 0.000000 -0.000000 -0.000000 0.000001 16.740433 -2.049030 0.000000 -0.000000 -0.000000 0.000000 9.617859 1.685014 0.000000 0.000000 0.000000 0.000002 22.037384 7.501101 0.000000 -0.000000 0.000000 -4.569968 11.014880 -2.160881 0.000008 0.000001 -0.000038 -10.592870 -0.524769 -2.231899 68.912258 34.013919 -23.705258 -27.841543 0.000002 0.000538 -55.560290 115.865922 80.118283 -28.328812 0.000022 0.000022 -0.000319 -0.000044 0.000006 -2.464434 -1.573726 2.682312 -50.517869 -167.705132 -17.090598 -3.215234 -1.872525 1.924618 148.173332 33.306618 25.370654 -2.654970 -1.527876 1.513064 147.930655 27.796908 -26.661732 -2.018822 -1.152021 1.108069 -0.000003 -0.000005 0.000000 -9.108386 -0.517559 2.260135 104.656407 14.989518 -19.399100 -3.700046 0.000314 0.001522 101.515025 12.870383 -15.695334 -2.850073 0.000367 -0.000246 100.447248 10.593803 -12.708641 -2.772177 -0.000016 -0.000022 0.000000 -0.000000 -0.000001 -9.532596 0.000265 0.000242 95.365061 15.681995 -17.357068 -3.700081 0.000328 0.003971 94.944370 12.999007 -14.056622 -2.950080 0.000337 -0.001797 98.209453 11.707638 -13.494125 -2.946617 0.000001 -0.000156 0.000001 -0.000002 -0.000000 -9.103714 -0.042754 -1.864887 92.420656 17.570219 -18.269388 -3.379306 0.000319 -0.000796 93.711855 10.539310 -11.259511 -2.889739 0.000349 0.000674 101.275067 7.051713 -8.646721 -2.638801 -0.000018 0.000941 0.000001 -0.000001 -0.000000 -8.076756 -0.486387 -3.806038 83.637941 17.786856 -15.802922 -3.600031 0.000279 -0.003538 85.800386 8.334969 -7.417437 -2.100002 0.000327 -0.005489 90.186931 4.328530 -4.126759 -2.115776 -0.000068 -0.003681 0.000003 -0.000001 -0.000006 4.570446 11.014691 -2.160851 -0.000018 0.000010 -0.000021 10.592474 -0.524581 -2.232349 29.576772 -64.898969 19.057315 27.841717 -0.000087 -0.000071 237.630259 -68.176264 258.212296 28.328842 0.000004 0.000032 0.000017 -0.000090 -0.000001 2.466152 -1.576157 2.681862 105.725256 139.197794 -152.083246 3.217789 -1.872057 1.916529 -129.336503 53.106425 73.809210 2.655885 -1.528828 1.514620 -189.500784 42.307937 135.193062 2.020895 -1.154087 1.115149 0.000002 -0.000000 0.000001 9.109168 -0.517701 2.260048 -148.635571 -12.700883 -43.230217 3.699884 0.000335 -0.000135 215.899083 -10.255812 329.005021 2.849967 0.000347 0.000536 -146.447070 -3.973191 -13.123852 2.774883 -0.000032 -0.000026 0.000000 -0.000002 0.000002 9.533257 0.000404 0.000220 209.938500 -11.372222 -40.836175 3.699924 0.000365 -0.000056 30.982950 -172.247576 -207.468868 2.949995 0.000364 0.000114 -149.041011 -1.366827 -4.941137 2.952872 -0.000032 0.000053 -0.000001 -0.000000 0.000001 9.104673 -0.042880 -1.865055 162.272440 -16.753213 -273.276279 3.150017 0.000116 -0.000107 58.075487 -3.144141 1.746748 2.949939 0.000019 -0.000082 23.393982 13.811477 -2.872681 2.644317 0.000020 0.000051 -0.000001 -0.000002 0.000003 8.077908 -0.486578 -3.806283 150.622637 -12.261031 46.767545 3.599930 0.000126 0.014532 234.121673 169.339336 -185.293456 2.099955 0.000018 0.007584 22.759664 20.215514 -4.105910 2.125513 -0.000031 0.007513 0.000000 0.000002 -0.000001 -8.207786 -6.751667 -1.599560 -0.077001 -0.000003 0.000080 -0.000002 -44.370110 0.345938 0.153719 -0.000000 -0.000000 0.000000 -44.423679 -3.043532 -0.076700 0.000000 -0.000002 -0.000006 -8.728667 10.710559 -0.000009 -0.000000 -0.000000 -0.000001 -0.000679 9.278123 0.000000 -0.000000 -0.000000 8.207792 -6.751710 -1.599556 -0.074518 -0.000003 0.000081 -0.000002 -44.370014 0.346960 0.148822 0.000002 0.000000 -0.000001 -44.423664 -3.044403 -0.074314 0.000000 -0.000002 -0.000004 -8.728671 10.710558 0.000007 -0.000000 -0.000000 0.000000 -0.000680 9.278137 -0.000000 0.000000 -0.000001 
0.000006 104.270477 1.554256 0.000010 0.000003 -0.000113 -0.000005 10.181587 0.131522 0.000001 -0.000003 0.000084 -0.000000 9.893967 -1.470711 0.000001 0.000000 -0.000000 -0.000000 9.220802 -1.370642 0.000000 -0.000000 -0.000000 0.000001 16.740433 -2.049030 0.000000 -0.000000 -0.000000 0.000000 9.617859 1.685014 0.000000 0.000000 0.000000 0.000002 22.037384 7.501101 0.000000 -0.000000 0.000000 -4.569968 11.014880 -2.160881 0.000008 0.000001 -0.000038 -10.592871 -0.524774 -2.231892 68.742555 34.867965 -24.244928 -27.841551 0.000021 0.000563 -55.193697 114.922345 78.653822 -28.328817 0.000008 0.000026 -0.000321 -0.000044 0.000006 -2.464415 -1.573768 2.682326 -47.468025 -163.820626 -8.832190 -3.215262 -1.872545 1.924629 150.371355 33.403908 21.392858 -2.654942 -1.527854 1.513060 147.999694 27.347847 -31.051543 -2.018839 -1.151999 1.108064 -0.000000 -0.000002 0.000007 -9.108375 -0.517555 2.260144 104.478760 16.117266 -20.777178 -3.700072 0.000318 0.001549 101.614275 13.755143 -16.800279 -2.850080 0.000371 -0.000241 100.596419 11.117080 -13.369773 -2.772156 0.000000 -0.000018 -0.000001 0.000000 0.000000 -9.532595 0.000259 0.000252 95.655652 17.252853 -19.172981 -3.700080 0.000320 0.003973 94.300836 13.307542 -14.232236 -2.950072 0.000337 -0.001809 96.940711 11.906622 -13.422680 -2.946626 0.000014 -0.000157 -0.000001 -0.000001 0.000001 -9.103706 -0.042766 -1.864849 93.846649 18.864783 -20.101457 -3.379325 0.000318 -0.000807 93.827176 10.202079 -10.921916 -2.889746 0.000350 0.000646 100.152232 6.710271 -8.068940 -2.638814 -0.000003 0.000939 0.000000 0.000001 -0.000001 -8.076765 -0.486388 -3.806038 85.422341 18.785027 -17.222255 -3.600042 0.000294 -0.003528 86.214876 8.792162 -7.897546 -2.100010 0.000319 -0.005499 89.836713 4.670427 -4.441476 -2.115762 -0.000053 -0.003685 0.000000 0.000000 -0.000002 4.570446 11.014691 -2.160851 -0.000018 0.000010 -0.000021 10.592474 -0.524582 -2.232346 28.564117 -65.588353 18.629320 27.841719 -0.000096 -0.000076 237.473492 -68.437580 257.755493 28.328840 -0.000010 0.000023 0.000017 -0.000089 -0.000000 2.466150 -1.576167 2.681864 108.435100 138.183224 -153.503434 3.217751 -1.872058 1.916543 -135.283399 57.272314 81.748116 2.655869 -1.528863 1.514629 -194.306874 43.791532 143.126150 2.020894 -1.154067 1.115146 0.000003 0.000002 0.000008 9.109182 -0.517682 2.260039 -150.787491 -10.462574 -38.695590 3.699875 0.000342 -0.000144 213.060224 -8.116257 333.078519 2.849985 0.000372 0.000518 -149.696737 -2.967892 -10.925827 2.774881 -0.000035 -0.000008 -0.000000 -0.000003 -0.000001 9.533258 0.000377 0.000204 206.068419 -10.141153 -41.926597 3.699915 0.000355 -0.000064 28.483414 -173.205306 -206.322379 2.950001 0.000351 0.000099 -152.119596 -0.905488 -3.656335 2.952873 -0.000010 0.000074 -0.000003 0.000000 0.000003 9.104692 -0.042866 -1.865071 159.907173 -14.958220 -286.911385 3.150017 0.000125 -0.000087 55.732090 -2.267980 1.200074 2.949992 0.000057 -0.000076 27.026683 11.329079 -2.730854 2.644318 0.000031 0.000055 -0.000000 -0.000003 -0.000000 8.077898 -0.486595 -3.806298 145.114759 -12.316113 39.744669 3.599945 0.000125 0.014550 235.644941 172.452824 -183.800554 2.099983 0.000063 0.007574 28.586903 16.410499 -4.169028 2.125498 0.000016 0.007515 -0.000000 0.000004 -0.000001 -8.207786 -6.751667 -1.599560 -0.077001 -0.000003 0.000080 -0.000002 -44.370110 0.345938 0.153719 -0.000000 -0.000000 0.000000 -44.423679 -3.043532 -0.076700 0.000000 -0.000002 -0.000006 -8.728667 10.710559 -0.000009 -0.000000 -0.000000 -0.000001 -0.000679 9.278123 0.000000 -0.000000 -0.000000 8.207792 -6.751710 -1.599556 -0.074518 -0.000003 0.000081 -0.000002 -44.370014 0.346960 0.148822 0.000002 0.000000 -0.000001 -44.423664 -3.044403 -0.074314 0.000000 -0.000002 -0.000004 -8.728671 10.710558 0.000007 -0.000000 -0.000000 0.000000 -0.000680 9.278137 -0.000000 0.000000 -0.000001 
